<svg width="75" height="18" viewBox="0 0 75 18" fill="none" xmlns="http://www.w3.org/2000/svg">
<path d="M5.81354 17.8267V4.9663H0.796875V1.97762H14.4583V4.9663H9.44166V17.8267H5.81354Z" fill="#171717"/>
<path d="M22.4333 17.8267V15.4493L22.2094 14.9286V10.672C22.2094 9.91724 21.9779 9.32857 21.5151 8.90592C21.0672 8.48328 20.3729 8.27196 19.4323 8.27196C18.7903 8.27196 18.1557 8.37762 17.5286 8.58894C16.9165 8.78517 16.3939 9.05687 15.9609 9.40404L14.7068 6.93611C15.3637 6.46819 16.155 6.10592 17.0807 5.84932C18.0064 5.59272 18.947 5.46441 19.9026 5.46441C21.7391 5.46441 23.1649 5.90215 24.1802 6.77762C25.1955 7.65309 25.7031 9.01913 25.7031 10.8757V17.8267H22.4333ZM18.7604 18.0078C17.8198 18.0078 17.0135 17.8493 16.3417 17.5323C15.6698 17.2003 15.1547 16.755 14.7963 16.1965C14.438 15.638 14.2588 15.0116 14.2588 14.3172C14.2588 13.5927 14.4305 12.9588 14.774 12.4154C15.1323 11.872 15.6922 11.4493 16.4536 11.1474C17.2151 10.8305 18.208 10.672 19.4323 10.672H22.6349V12.7323H19.813C18.9918 12.7323 18.4245 12.8682 18.1109 13.1399C17.8123 13.4116 17.663 13.7512 17.663 14.1588C17.663 14.6116 17.8347 14.9738 18.1781 15.2455C18.5365 15.5022 19.0217 15.6305 19.6338 15.6305C20.2161 15.6305 20.7387 15.4946 21.2016 15.2229C21.6644 14.9361 22.0003 14.521 22.2094 13.9776L22.7469 15.6078C22.493 16.3927 22.0302 16.9889 21.3583 17.3965C20.6865 17.804 19.8205 18.0078 18.7604 18.0078Z" fill="#171717"/>
<path d="M32.4098 18.0078C31.3796 18.0078 30.3867 17.8871 29.4311 17.6455C28.4905 17.3889 27.744 17.072 27.1915 16.6946L28.3561 14.1588C28.9086 14.5059 29.558 14.7927 30.3046 15.0191C31.066 15.2305 31.8126 15.3361 32.5441 15.3361C33.3504 15.3361 33.9178 15.238 34.2462 15.0418C34.5896 14.8455 34.7613 14.5738 34.7613 14.2267C34.7613 13.9399 34.627 13.7286 34.3582 13.5927C34.1044 13.4418 33.761 13.3286 33.328 13.2531C32.895 13.1776 32.4172 13.1022 31.8947 13.0267C31.387 12.9512 30.8719 12.8531 30.3494 12.7323C29.8268 12.5965 29.349 12.4003 28.916 12.1437C28.483 11.8871 28.1322 11.5399 27.8634 11.1022C27.6096 10.6644 27.4827 10.0984 27.4827 9.40404C27.4827 8.63423 27.6992 7.95498 28.1322 7.3663C28.5801 6.77762 29.2221 6.31724 30.0582 5.98517C30.8943 5.638 31.8947 5.46441 33.0593 5.46441C33.8804 5.46441 34.7165 5.55498 35.5676 5.73611C36.4186 5.91724 37.1278 6.18139 37.6952 6.52856L36.5306 9.04177C35.9483 8.6946 35.3586 8.46064 34.7613 8.33989C34.179 8.20404 33.6117 8.13611 33.0593 8.13611C32.2829 8.13611 31.7155 8.24177 31.3572 8.45309C30.9988 8.66441 30.8197 8.93611 30.8197 9.26819C30.8197 9.57007 30.9466 9.79649 31.2004 9.94743C31.4692 10.0984 31.82 10.2191 32.253 10.3097C32.686 10.4003 33.1563 10.4833 33.6639 10.5588C34.1865 10.6191 34.7091 10.7172 35.2316 10.8531C35.7542 10.9889 36.2245 11.1852 36.6426 11.4418C37.0756 11.6833 37.4264 12.0229 37.6952 12.4606C37.9639 12.8833 38.0983 13.4418 38.0983 14.1361C38.0983 14.8908 37.8744 15.5625 37.4264 16.1512C36.9785 16.7248 36.329 17.1776 35.478 17.5097C34.6419 17.8418 33.6191 18.0078 32.4098 18.0078Z" fill="#171717"/>
<path d="M42.634 15.3361L42.7236 11.0342L48.3449 5.64554H52.5105L47.1131 11.1927L45.2991 12.6871L42.634 15.3361ZM39.7449 17.8267V1.02668H43.2387V17.8267H39.7449ZM48.7256 17.8267L44.6496 12.7097L46.8444 9.97008L52.9585 17.8267H48.7256Z" fill="#171717"/>
<path d="M54.0207 17.8267V5.64554H57.5144V17.8267H54.0207ZM55.7675 3.94743C55.1255 3.94743 54.603 3.75876 54.1998 3.3814C53.7967 3.00404 53.5951 2.53611 53.5951 1.97762C53.5951 1.41913 53.7967 0.951209 54.1998 0.573851C54.603 0.196492 55.1255 0.0078125 55.7675 0.0078125C56.4095 0.0078125 56.9321 0.188945 57.3352 0.55121C57.7384 0.898379 57.9399 1.35121 57.9399 1.9097C57.9399 2.49838 57.7384 2.98895 57.3352 3.3814C56.947 3.75876 56.4245 3.94743 55.7675 3.94743Z" fill="#171717"/>
<path d="M61.6707 0.845548V13.2984C61.6707 14.672 62.0738 15.7663 62.8801 16.5814C63.6863 17.4116 64.836 17.8267 66.329 17.8267C66.8367 17.8267 67.3219 17.7738 67.7848 17.6682C68.2625 17.5625 68.6657 17.3965 68.9941 17.1701L68.0759 14.6116C67.8818 14.7474 67.6653 14.8531 67.4264 14.9286C67.1875 15.004 66.9337 15.0418 66.665 15.0418C66.1573 15.0418 65.7617 14.8908 65.478 14.5889C65.2092 14.3021 65.1644 13.8871 65.1644 13.2984V12.2139V10.6267V0.845548H61.6707Z" fill="#171717"/>
<path d="M65.478 8.31261H62.3311H59.1542V5.64707H68.6282V8.31261H65.478Z" fill="#171717"/>
<path d="M72.8024 13.7407C71.7008 13.7407 70.8118 14.6521 70.8078 15.7764C70.8039 16.9047 71.6968 17.8267 72.8024 17.8267C73.9079 17.8267 74.8008 16.9047 74.7969 15.7764C74.7929 14.6521 73.9039 13.7407 72.8024 13.7407Z" fill="#171717"/>
</svg>
